<svg version="1.2" xmlns="http://www.w3.org/2000/svg" viewBox="0 0 187 187" width="187" height="187">
	<title>Vector Smart Object1-ai</title>
	<style>
		.s0 { fill: #fff } 
	</style>
	<g id="Camada 1">
		<g id="&lt;Group&gt;">
			<g id="&lt;Group&gt;">
				<g id="&lt;Group&gt;">
					<g id="&lt;Group&gt;">
						<path id="&lt;Path&gt;" class="s0" d="m159.1 131.3c1.5 0 2.6 1.2 2.6 2.6 0 1.5-1.1 2.6-2.6 2.6h-37.3c-1.5 0-2.6-1.1-2.6-2.6 0-1.4 1.1-2.6 2.6-2.6z"/>
						<path id="&lt;Path&gt;" class="s0" d="m155.5 146.4c0 1.4-1.2 2.6-2.6 2.6h-24.9c-1.4 0-2.6-1.2-2.6-2.6 0-1.5 1.2-2.6 2.6-2.6h24.9c1.4 0 2.6 1.1 2.6 2.6z"/>
						<path id="&lt;Path&gt;" class="s0" d="m152.9 118.9c1.4 0 2.6 1.1 2.6 2.6 0 1.4-1.2 2.6-2.6 2.6h-24.9c-1.4 0-2.6-1.2-2.6-2.6 0-1.5 1.2-2.6 2.6-2.6z"/>
						<path id="&lt;Compound Path&gt;" fill-rule="evenodd" class="s0" d="m122.3 96.6v-18.7c0-1.4 1.2-2.6 2.6-2.6h3.6v-9.8c0-1.5 1.2-2.7 2.6-2.7h15.6c1.4 0 2.6 1.2 2.6 2.7v9.8h3.6c1.4 0 2.6 1.2 2.6 2.6v18.7c0 1.4-1.2 2.6-2.6 2.6h-28c-1.4 0-2.6-1.2-2.6-2.6zm5.2-2.6h22.8v-13.5h-22.8zm6.2-18.6h10.4v-7.3h-10.4z"/>
						<path id="&lt;Compound Path&gt;" fill-rule="evenodd" class="s0" d="m128 173.9c-4.9 0-8.8-4-8.8-8.8 0-4.9 3.9-8.9 8.8-8.9h24.9c4.9 0 8.8 4 8.8 8.9 0 4.8-3.9 8.8-8.8 8.8zm-3.6-8.8c0 1.9 1.6 3.6 3.6 3.6h24.9c2 0 3.6-1.7 3.6-3.6 0-2-1.6-3.7-3.6-3.7h-24.9c-2 0-3.6 1.7-3.6 3.7z"/>
						<path id="&lt;Compound Path&gt;" fill-rule="evenodd" class="s0" d="m109.8 109v-56c0-1.4 1.2-2.6 2.6-2.6h53c1.4 0 2.6 1.2 2.6 2.6v56c0 1.5-1.2 2.6-2.6 2.6h-53c-1.4 0-2.6-1.1-2.6-2.6zm5.3-2.6h47.6v-50.8h-47.6z"/>
						<path id="&lt;Path&gt;" class="s0" d="m68.9 131.3c1.4 0 2.6 1.2 2.6 2.6 0 1.5-1.2 2.6-2.6 2.6h-37.4c-1.4 0-2.6-1.1-2.6-2.6 0-1.4 1.2-2.6 2.6-2.6z"/>
						<path id="&lt;Compound Path&gt;" fill-rule="evenodd" class="s0" d="m80.8 15.7v12.4c0 1.4-1.2 2.6-2.6 2.6h-12.4c-1.5 0-2.7-1.2-2.7-2.6v-12.4c0-1.5 1.2-2.7 2.7-2.7h12.4c1.4 0 2.6 1.2 2.6 2.7zm-5.2 9.8v-7.2h-7.2v7.2z"/>
						<path id="&lt;Path&gt;" class="s0" d="m62.6 118.9c1.5 0 2.7 1.1 2.7 2.6 0 1.4-1.2 2.6-2.7 2.6h-24.9c-1.4 0-2.6-1.2-2.6-2.6 0-1.5 1.2-2.6 2.6-2.6z"/>
						<path id="&lt;Path&gt;" class="s0" d="m62.6 143.8c1.5 0 2.7 1.1 2.7 2.6 0 1.4-1.2 2.6-2.7 2.6h-24.9c-1.4 0-2.6-1.2-2.6-2.6 0-1.5 1.2-2.6 2.6-2.6z"/>
						<path id="&lt;Compound Path&gt;" fill-rule="evenodd" class="s0" d="m38.2 28.1v-12.4c0-1.5 1.2-2.7 2.7-2.7h12.4c1.4 0 2.6 1.2 2.6 2.7v12.4c0 1.4-1.2 2.6-2.6 2.6h-12.4c-1.5 0-2.7-1.2-2.7-2.6zm5.3-2.6h7.2v-7.2h-7.2z"/>
						<path id="&lt;Compound Path&gt;" fill-rule="evenodd" class="s0" d="m32 96.6v-18.7c0-1.4 1.2-2.6 2.6-2.6h3.6v-9.8c0-1.5 1.2-2.7 2.7-2.7h15.5c1.5 0 2.6 1.2 2.6 2.7v9.8h3.6c1.5 0 2.7 1.2 2.7 2.6v18.7c0 1.4-1.2 2.6-2.7 2.6h-28c-1.4 0-2.6-1.2-2.6-2.6zm5.2-2.6h22.8v-13.5h-22.8zm6.3-18.6h10.3v-7.3h-10.3z"/>
						<path id="&lt;Compound Path&gt;" fill-rule="evenodd" class="s0" d="m37.7 173.9c-4.8 0-8.8-4-8.8-8.8 0-4.9 4-8.9 8.8-8.9h24.9c4.9 0 8.9 4 8.9 8.9 0 4.8-4 8.8-8.9 8.8zm-3.6-8.8c0 1.9 1.6 3.6 3.6 3.6h24.9c2 0 3.7-1.7 3.7-3.6 0-2-1.7-3.7-3.7-3.7h-24.9c-2 0-3.6 1.7-3.6 3.7z"/>
						<path id="&lt;Compound Path&gt;" fill-rule="evenodd" class="s0" d="m19.6 109v-56c0-1.4 1.1-2.6 2.6-2.6h52.9c1.4 0 2.6 1.2 2.6 2.6v56c0 1.5-1.2 2.6-2.6 2.6h-52.9c-1.5 0-2.6-1.1-2.6-2.6zm5.2-2.6h47.7v-50.8h-47.7z"/>
						<path id="&lt;Compound Path&gt;" fill-rule="evenodd" class="s0" d="m13.3 28.1v-12.4c0-1.5 1.2-2.7 2.7-2.7h12.4c1.4 0 2.6 1.2 2.6 2.7v12.4c0 1.4-1.2 2.6-2.6 2.6h-12.4c-1.5 0-2.7-1.2-2.7-2.6zm5.3-2.6h7.2v-7.2h-7.2z"/>
						<path id="&lt;Compound Path&gt;" fill-rule="evenodd" class="s0" d="m0.9 14.1c0-7.4 6.1-13.5 13.5-13.5h158.7c7.5 0 13.5 6.1 13.5 13.5v159.3c0 7.1-5.8 12.9-12.9 12.9h-159.3c-7.4 0-13.5-6-13.5-13.5zm5.2 158.8c0 4.5 3.7 8.3 8.3 8.3h76.8v-138h-85.1zm8.3-167c-4.6 0-8.3 3.7-8.3 8.3v23.8h175.3v-23.8c0-4.6-3.7-8.3-8.3-8.3zm82 175.3h76.8c4.5 0 8.3-3.7 8.3-8.3v-129.7h-85.1z"/>
					</g>
				</g>
			</g>
		</g>
	</g>
</svg>