<svg version="1.2" xmlns="http://www.w3.org/2000/svg" viewBox="0 0 190 190" width="190" height="190">
	<title>Vector Smart Object-ai</title>
	<style>
		.s0 { fill: #fff } 
	</style>
	<g id="Camada 1">
		<g id="&lt;Group&gt;">
			<path id="&lt;Compound Path&gt;" fill-rule="evenodd" class="s0" d="m177.9 75.4c5.9 5.8 11.9 11.8 11.9 19.8 0 8-6 14-11.9 19.9-3.8 3.7-7.3 7.2-8.8 10.8-1.6 3.8-1.6 9.2-1.6 14.4 0 8.1 0 16.5-5.4 21.9-5.4 5.4-13.8 5.4-21.9 5.4-5.2 0-10.6 0.1-14.4 1.6-3.6 1.5-7.1 5.1-10.8 8.8-5.9 5.9-11.9 12-19.9 12-8 0-14-6.1-19.8-12-3.8-3.7-7.3-7.3-10.9-8.8-3.8-1.5-9.2-1.6-14.4-1.6-8.1 0-16.5 0-21.9-5.4-5.4-5.4-5.4-13.8-5.4-21.9 0-5.2 0-10.6-1.6-14.4-1.5-3.6-5-7.1-8.8-10.8-5.9-5.9-11.9-11.9-11.9-19.9 0-8 6-14 11.9-19.8 3.8-3.8 7.3-7.3 8.8-10.8 1.6-3.8 1.6-9.2 1.6-14.5 0-8.1 0-16.5 5.4-21.9 5.4-5.4 13.8-5.4 21.9-5.4 5.2 0 10.6 0 14.4-1.6 3.6-1.5 7.1-5 10.9-8.8 5.8-5.8 11.8-11.9 19.8-11.9 8 0 14 6.1 19.9 11.9 3.7 3.8 7.2 7.3 10.8 8.8 3.8 1.6 9.2 1.6 14.4 1.6 8.1 0 16.5 0 21.9 5.4 5.4 5.4 5.4 13.8 5.4 21.9 0 5.2 0 10.7 1.6 14.5 1.5 3.5 5 7.1 8.8 10.8zm5.6 19.8c0-5.3-5.1-10.4-10.1-15.3-4-4-8.2-8.2-10.1-12.9-2.1-5-2.1-11-2.1-16.9 0-7.1 0-13.9-3.6-17.4-3.5-3.5-10.3-3.6-17.4-3.6-5.9 0-11.9 0-16.9-2.1-4.7-1.9-8.8-6.1-12.8-10.1-5-5-10-10.1-15.4-10.1-5.3 0-10.4 5.1-15.3 10.1-4.1 4-8.2 8.2-12.9 10.1-5 2.1-11 2.1-16.9 2.1-7.1 0-13.9 0.1-17.4 3.6-3.6 3.5-3.6 10.3-3.6 17.4 0 5.9 0 11.9-2.1 16.9-1.9 4.7-6.1 8.9-10.1 12.9-5 4.9-10.1 10-10.1 15.3 0 5.4 5.1 10.5 10.1 15.4 4 4 8.2 8.1 10.1 12.9 2.1 4.9 2.1 10.9 2.1 16.8 0 7.1 0 13.9 3.6 17.4 3.5 3.6 10.3 3.6 17.4 3.6 5.9 0 11.9 0 16.9 2.1 4.7 2 8.8 6.1 12.9 10.2 4.9 4.9 10 10 15.3 10 5.4 0 10.4-5.1 15.4-10 4-4.1 8.1-8.2 12.8-10.2 5-2.1 11-2.1 16.9-2.1 7.1 0 13.9 0 17.4-3.6 3.6-3.5 3.6-10.2 3.6-17.4 0-5.8 0-11.9 2.1-16.8 1.9-4.8 6.1-8.9 10.1-12.9 5-4.9 10.1-10 10.1-15.4z"/>
			<path id="&lt;Path&gt;" class="s0" d="m123.7 71.1l-52.8 52.7c-0.6 0.7-1.4 1-2.2 1-0.8 0-1.6-0.3-2.2-1-1.3-1.2-1.3-3.2 0-4.4l52.8-52.8c1.2-1.2 3.2-1.2 4.4 0 1.3 1.2 1.3 3.2 0 4.5z"/>
			<path id="&lt;Compound Path&gt;" fill-rule="evenodd" class="s0" d="m67.7 90c-2.9-3-4.6-6.9-4.6-11.1 0-4.2 1.7-8.1 4.6-11.1 3-2.9 6.9-4.6 11.1-4.6 4.2 0 8.1 1.7 11.1 4.6 6.1 6.1 6.1 16.1 0 22.2-3 2.9-6.9 4.6-11.1 4.6-4.2 0-8.1-1.7-11.1-4.6zm1.7-11.1c0 2.5 1 4.8 2.8 6.6 3.5 3.5 9.7 3.5 13.2 0 3.6-3.6 3.6-9.6 0-13.2-1.8-1.8-4.1-2.7-6.6-2.7-2.5 0-4.9 0.9-6.6 2.7-1.8 1.8-2.8 4.1-2.8 6.6z"/>
			<path id="&lt;Compound Path&gt;" fill-rule="evenodd" class="s0" d="m122.5 100.5c6.1 6.1 6.1 16 0 22.1-3 3-6.9 4.6-11.1 4.6-4.2 0-8.1-1.6-11.1-4.6-2.9-2.9-4.5-6.9-4.5-11.1 0-4.1 1.6-8.1 4.5-11 3-3 6.9-4.6 11.1-4.6q0 0 0 0c4.2 0 8.1 1.6 11.1 4.6zm-4.5 4.4c-1.7-1.7-4.1-2.7-6.6-2.7-2.5 0-4.8 1-6.6 2.7-1.8 1.8-2.7 4.1-2.7 6.6 0 2.5 0.9 4.9 2.7 6.6 3.5 3.6 9.7 3.6 13.2 0 3.7-3.6 3.7-9.5 0-13.2z"/>
		</g>
	</g>
</svg>