<svg version="1.2" xmlns="http://www.w3.org/2000/svg" viewBox="0 0 185 184" width="185" height="184">
	<title>Vector Smart Object-ai</title>
	<style>
		.s0 { fill: #fff } 
	</style>
	<g id="Camada 1">
		<g id="&lt;Group&gt;">
			<g id="&lt;Group&gt;">
				<g id="&lt;Group&gt;">
					<g id="&lt;Group&gt;">
						<path id="&lt;Path&gt;" class="s0" d="m180.5 88c2.3 0 4 1.8 4 4.2 0 2.4-1.9 4.2-4.2 4.2h-25.2c-2.4 0-4.2-1.8-4.2-4.2 0-2.4 1.8-4.2 4.2-4.2z"/>
						<path id="&lt;Path&gt;" class="s0" d="m163.3 117.8c2.2 0.9 3.2 3.4 2.4 5.6-8.1 19-23.1 33.8-42.4 41.9-0.3 0.2-0.9 0.3-1.4 0.3-1.7 0-3.2-1-3.9-2.6-0.9-2.2 0.1-4.7 2.3-5.6 17-7.4 30.3-20.7 37.3-37.4 0.7-1.6 2.3-2.6 4-2.6q0.9 0 1.7 0.4z"/>
						<path id="&lt;Path&gt;" class="s0" d="m165.5 61c0.9 2.2 0 4.7-2.4 5.7-0.3 0.2-0.9 0.3-1.4 0.3-1.7 0-3.2-1-3.9-2.6-7.3-17.1-20.6-30.3-37.3-37.4-2.2-0.9-3.2-3.4-2.3-5.6 1-2.2 3.5-3.2 5.7-2.2 18.9 8.1 33.7 22.9 41.6 41.8z"/>
						<path id="&lt;Compound Path&gt;" fill-rule="evenodd" class="s0" d="m132.5 125.7c0.1 1.2-0.2 2.3-0.9 3.2-0.7 0.8-1.6 1.4-2.7 1.5h-0.6c-2.1 0-3.8-1.6-3.8-3.4v-0.3c-0.7-7-4-13.9-9.1-19-6-6-13.9-9.3-22.3-9.3-16.1 0-29.9 12.4-31.4 28.3-0.1 1.1-0.7 2.1-1.5 2.8-0.9 0.7-2.1 1-3.2 0.9-1.1-0.1-2.1-0.6-2.8-1.5-0.7-0.9-1.1-2-0.9-3.2 1.4-13.2 9.2-24.8 20.8-31.1l3.4-1.8-2.6-2.8c-3.8-4.1-5.8-9.6-5.8-15.4 0-13.1 10.6-23.8 23.8-23.8 13.1 0 23.8 10.7 23.8 23.8 0 6.9-3.2 12.2-5.9 15.5l-2.4 2.8 3.2 1.7c3.4 1.9 6.5 4.3 9.4 7.1 6.5 6.5 10.6 15 11.5 24zm-39.5-35.9c8.4-0.3 15.1-7 15.1-15.4 0-8.5-6.9-15.4-15.4-15.4-8.5 0-15.4 6.9-15.4 15.4 0 8.4 6.6 15.1 15.2 15.4z"/>
						<path id="&lt;Path&gt;" class="s0" d="m96.9 154.6v25.2c0 2.4-1.9 4.2-4.2 4.2-2.4 0-4.2-1.8-4.2-4.2v-25.2c0-2.4 1.8-4.2 4.2-4.2 2.3 0 4.2 1.8 4.2 4.2z"/>
						<path id="&lt;Path&gt;" class="s0" d="m96.9 4.4v25.4c0 2.4-1.9 4.2-4.2 4.2-2.4 0-4.2-1.9-4.2-4.4v-25.2c0-2.4 1.8-4.2 4.2-4.2 2.3 0 4.2 1.8 4.2 4.2z"/>
						<path id="&lt;Path&gt;" class="s0" d="m67.1 21.4c0.9 2.2 0 4.7-2.2 5.6-17.1 7.4-30.4 20.7-37.4 37.4-0.7 1.6-2.1 2.6-3.8 2.6-0.6 0-1-0.1-1.7-0.4-2.2-0.9-3.2-3.4-2.4-5.6 8.1-18.9 23-33.8 41.8-41.8 2.3-1 4.8 0 5.7 2.2z"/>
						<path id="&lt;Path&gt;" class="s0" d="m67.1 159.7c0.3 0.8 0.5 1.9-0.2 3.3-0.7 1.6-2.1 2.6-3.8 2.6-0.6 0-1-0.1-1.6-0.4-18.9-8.1-33.8-22.9-41.9-41.8-0.9-2.2 0.1-4.7 2.2-5.6q0.9-0.4 1.8-0.4c1.6 0 3.2 1 3.9 2.6 7.4 17.1 20.7 30.3 37.4 37.3 1 0.5 1.8 1.4 2.2 2.4z"/>
						<path id="&lt;Path&gt;" class="s0" d="m30.3 88c2.3 0 4.2 1.8 4.2 4.2 0 2.4-1.9 4.2-4.4 4.2h-25.2c-2.4 0-4.2-1.8-4.2-4.2 0-2.4 1.8-4.2 4.2-4.2z"/>
					</g>
				</g>
			</g>
		</g>
	</g>
</svg>