<svg version="1.2" xmlns="http://www.w3.org/2000/svg" viewBox="0 0 185 180" width="185" height="180">
	<title>Vector Smart Object-ai</title>
	<style>
		.s0 { fill: #fff } 
	</style>
	<g id="Camada 1">
		<g id="&lt;Group&gt;">
			<path id="&lt;Compound Path&gt;" fill-rule="evenodd" class="s0" d="m36.9 157.7v-36.9c0-5.2 4.2-9.3 9.3-9.3 5.1 0 9.2 4.1 9.2 9.3v36.9c0 5.1-4.1 9.2-9.2 9.2-5.1 0-9.3-4.1-9.3-9.2zm6.2 0c0 1.7 1.4 3.1 3.1 3.1 1.7 0 3.1-1.4 3.1-3.1v-36.9c0-1.8-1.4-3.1-3.1-3.1-1.7 0-3.1 1.3-3.1 3.1z"/>
			<path id="&lt;Compound Path&gt;" fill-rule="evenodd" class="s0" d="m67.7 157.7v-36.9c0-5.2 4.2-9.3 9.3-9.3 5.1 0 9.2 4.1 9.2 9.3v36.9c0 5.1-4.1 9.2-9.2 9.2-5.1 0-9.3-4.1-9.3-9.2zm6.2 0c0 1.7 1.4 3.1 3.1 3.1 1.7 0 3-1.4 3-3.1v-36.9c0-1.8-1.3-3.1-3-3.1-1.7 0-3.1 1.3-3.1 3.1z"/>
			<path id="&lt;Compound Path&gt;" fill-rule="evenodd" class="s0" d="m98.5 157.7v-36.9c0-5.2 4.1-9.3 9.3-9.3 5.1 0 9.2 4.1 9.2 9.3v36.9c0 5.1-4.2 9.2-9.2 9.2-5.1 0-9.3-4.1-9.3-9.2zm6.2 0c0 1.7 1.3 3.1 3.1 3.1 1.7 0 3-1.4 3-3.1v-36.9c0-1.8-1.3-3.1-3-3.1-1.8 0-3.1 1.3-3.1 3.1z"/>
			<path id="&lt;Compound Path&gt;" fill-rule="evenodd" class="s0" d="m129.3 157.7v-36.9c0-5.2 4.1-9.3 9.2-9.3 5.1 0 9.3 4.1 9.3 9.3v36.9c0 5.1-4.2 9.2-9.3 9.2-5.1 0-9.2-4.1-9.2-9.2zm6.2 0c0 1.7 1.3 3.1 3 3.1 1.7 0 3.1-1.4 3.1-3.1v-36.9c0-1.8-1.4-3.1-3.1-3.1-1.7 0-3 1.3-3 3.1z"/>
			<path id="&lt;Compound Path&gt;" fill-rule="evenodd" class="s0" d="m184.7 86.9c0 6.8-5.5 12.3-12.3 12.3h-0.4l-10 65.1c-1.3 8.6-8.8 15-17.5 14.9h-104.3c-8.7 0.1-16.2-6.3-17.4-14.9l-10.1-65.1h-0.4c-6.8 0-12.3-5.5-12.3-12.3 0-6.8 5.5-12.3 12.3-12.3v-24.3c0-6.9 5.5-12.5 12.3-12.7v-12.3c0-1.7 1.4-3.1 3.1-3.1h18.5c1.7 0 3.1 1.4 3.1 3.1v12.3c2.1 0.1 4.2 0.7 6.1 1.8v-11c0-0.7 0.2-1.3 0.6-1.9l8.6-11.5v-11.2c0-1.7 1.4-3.1 3.1-3.1h40.1c1.7 0 3 1.4 3 3.1v11.2l8.7 11.5c0.3 0.6 0.6 1.2 0.6 1.9v9.2h4.8l20.7-20.6c4.6-4.6 12.1-4.6 16.7 0 4.6 4.6 4.6 12 0 16.6l-4 4h1.8c1.7 0 3.1 1.4 3.1 3.1v11.1c5.9 6.1 9.2 14.3 9.2 22.8 6.8 0 12.3 5.5 12.3 12.3zm-30.8-12.3h12.3c0-6.2-2.1-12.1-6-16.9-3.9 4.7-6.2 10.7-6.3 16.9zm-65.5 8.3q-0.1 0-0.1 0.1c-2.2 2.2-2.1 5.7 0.1 7.9 2.2 2.2 5.8 2.2 7.9 0l61.6-61.6q0 0 0.1-0.1c2.2-2.2 2.1-5.8-0.1-7.9-2.2-2.2-5.8-2.2-7.9 0zm51.4-26.8l-18.5 18.5h26.5c0.1-6.6 2.1-13.1 5.9-18.5zm17.2-6.1v-6.2h-4.9l-6.1 6.2zm-38.3-6.2h-4.9v4.9zm-11-22.6l-6.2 8.2v31.6l6.6-6.5q-0.4-0.7-0.4-1.5v-12.3c0-1.7 1.4-3.1 3.1-3.1h3.1v-8.2zm-37-8.2h33.9v-6.2h-33.9zm-6.1 12.4h32.3l4.6-6.2h-32.3zm-3.1 49.3h26.4l7.5-7.5v-35.6h-33.9zm-30.8-37h12.3v-9.2h-12.3zm-12.3 36.9h36.9v-24.3c0-3.6-2.9-6.5-6.4-6.5h-24c-3.6 0-6.5 2.9-6.5 6.5v12h30.8v6.2h-30.8zm63.8 18.4c-2.3-3.7-2.3-8.5 0-12.3h-70c-3.4 0-6.1 2.8-6.1 6.2 0 3.4 2.7 6.1 6.1 6.1zm83.5 6.2h-146.8l9.9 64.2c0.8 5.6 5.7 9.7 11.3 9.7h104.4c5.6 0 10.5-4.1 11.3-9.7zm12.8-12.4c0-3.4-2.7-6.1-6.1-6.1h-57.3l-12.3 12.3h69.6c3.4 0 6.1-2.8 6.1-6.2z"/>
		</g>
	</g>
</svg>