<svg version="1.2" xmlns="http://www.w3.org/2000/svg" viewBox="0 0 186 186" width="186" height="186">
	<title>Vector Smart Object-ai</title>
	<style>
		.s0 { fill: #fff } 
	</style>
	<g id="Camada 1">
		<g id="&lt;Group&gt;">
			<path id="&lt;Path&gt;" class="s0" d="m12.6 9.6h6.2v6.2h-6.2z"/>
			<path id="&lt;Path&gt;" class="s0" d="m25 9.6h6.1v6.2h-6.1z"/>
			<path id="&lt;Path&gt;" class="s0" d="m37.3 9.6h6.2v6.2h-6.2z"/>
			<path id="&lt;Path&gt;" class="s0" d="m31.1 37.4h24.8v6.2h-24.8z"/>
			<path id="&lt;Path&gt;" class="s0" d="m43.5 87h6.2v6.2h-6.2z"/>
			<path id="&lt;Path&gt;" class="s0" d="m31.1 49.8h12.4v6.2h-12.4z"/>
			<path id="&lt;Path&gt;" class="s0" d="m18.8 74.6h6.2v6.2h-6.2z"/>
			<path id="&lt;Path&gt;" class="s0" d="m18.8 37.4h6.2v6.2h-6.2z"/>
			<path id="&lt;Path&gt;" class="s0" d="m18.8 49.8h6.2v6.2h-6.2z"/>
			<path id="&lt;Path&gt;" class="s0" d="m18.8 62.2h52.6v6.2h-52.6z"/>
			<path id="&lt;Path&gt;" class="s0" d="m31.1 74.6h37.2v6.2h-37.2z"/>
			<path id="&lt;Compound Path&gt;" fill-rule="evenodd" class="s0" d="m185.9 65.3v105.3c0 8.5-6.9 15.4-15.4 15.4h-55.8c-8.5 0-15.4-6.9-15.4-15.4v-15.5h-89.8c-5.2 0-9.3-4.2-9.3-9.3v-136.2c0-5.2 4.1-9.3 9.3-9.3h142.4c5.1 0 9.3 4.1 9.3 9.3v40.2h9.3c8.5 0 15.4 7 15.4 15.5zm-86.6 83.6v-5.8c0-1.7 1.3-3.1 3.1-3.1 1.7 0 3 1.4 3 3.1v18.2h74.3v-86.7h-74.3v18.6c0 1.7-1.3 3.1-3 3.1-1.8 0-3.1-1.4-3.1-3.1v-27.9c0-8.5 6.9-15.5 15.4-15.5h40.3v-24.7h-148.6v120.7c0 1.7 1.4 3.1 3.1 3.1zm-92.9-130h148.6v-9.3c0-1.7-1.4-3.1-3.1-3.1h-142.4c-1.7 0-3.1 1.4-3.1 3.1zm164.1 37.1h-55.7c-5.2 0-9.3 4.2-9.3 9.3v3.1h74.3v-3.1c0-5.1-4.2-9.3-9.3-9.3zm9.3 114.6v-3.1h-74.3v3.1c0 5.1 4.1 9.3 9.3 9.3h55.7c5.1 0 9.3-4.2 9.3-9.3z"/>
			<path id="&lt;Path&gt;" class="s0" d="m136.4 170.6h12.4v6.1h-12.4z"/>
			<path id="&lt;Path&gt;" class="s0" d="m130.2 127.2h24.8v6.2h-24.8z"/>
			<path id="&lt;Path&gt;" class="s0" d="m130.2 139.6h21.7v6.2h-21.7z"/>
			<path id="&lt;Path&gt;" class="s0" d="m107.6 120.1l-15.3 15.3q0 0.1-0.1 0.1c-1.2 1.2-3.2 1.2-4.3-0.1-1.2-1.2-1.2-3.2 0-4.3l13.2-13.2-13.2-13.1q0 0 0-0.1c-1.2-1.2-1.2-3.2 0-4.4 1.3-1.2 3.2-1.1 4.4 0.1l15.3 15.3c1.2 1.2 1.2 3.2 0 4.4z"/>
			<path id="&lt;Path&gt;" class="s0" d="m92.2 120.1l-15.4 15.3q0 0.1 0 0.1c-1.3 1.2-3.2 1.2-4.4-0.1-1.2-1.2-1.2-3.2 0.1-4.3l13.1-13.2-13.1-13.1q-0.1 0-0.1-0.1c-1.2-1.2-1.2-3.2 0.1-4.4 1.2-1.2 3.1-1.1 4.3 0.1l15.4 15.3c1.2 1.2 1.2 3.2 0 4.4z"/>
			<path id="&lt;Path&gt;" class="s0" d="m103.4 104.8q0 0-0.1-0.1c-1.1-1.2-1.1-3.2 0.1-4.4 1.2-1.2 3.2-1.1 4.4 0.1l15.3 15.3c1.2 1.2 1.2 3.2 0 4.4l-15.3 15.3q0 0.1-0.1 0.1c-1.2 1.2-3.2 1.2-4.4-0.1-1.1-1.2-1.1-3.2 0.1-4.3l13.2-13.2z"/>
			<path id="&lt;Path&gt;" class="s0" d="m62.1 37.4h21.7v6.2h-21.7z"/>
			<path id="&lt;Path&gt;" class="s0" d="m49.7 49.8h34.1v6.2h-34.1z"/>
			<path id="&lt;Path&gt;" class="s0" d="m77.6 62.2h6.2v6.2h-6.2z"/>
			<path id="&lt;Path&gt;" class="s0" d="m77.6 74.6h6.2v6.2h-6.2z"/>
			<path id="&lt;Path&gt;" class="s0" d="m18.8 87h18.5v6.2h-18.5z"/>
			<path id="&lt;Path&gt;" class="s0" d="m55.9 87h27.9v6.2h-27.9z"/>
			<path id="&lt;Path&gt;" class="s0" d="m18.8 99.4h18.5v6.1h-18.5z"/>
			<path id="&lt;Path&gt;" class="s0" d="m18.8 111.7h6.2v6.2h-6.2z"/>
			<path id="&lt;Path&gt;" class="s0" d="m31.1 111.7h18.6v6.2h-18.6z"/>
			<path id="&lt;Path&gt;" class="s0" d="m142.6 102.4h24.8v6.2h-24.8z"/>
			<path id="&lt;Path&gt;" class="s0" d="m148.8 114.8h6.2v6.2h-6.2z"/>
			<path id="&lt;Path&gt;" class="s0" d="m130.2 102.4h6.2v6.2h-6.2z"/>
			<path id="&lt;Path&gt;" class="s0" d="m130.2 114.8h12.4v6.2h-12.4z"/>
			<path id="&lt;Path&gt;" class="s0" d="m161.2 127.2h6.2v6.2h-6.2z"/>
			<path id="&lt;Path&gt;" class="s0" d="m130.2 90.1h6.2v6.2h-6.2z"/>
			<path id="&lt;Path&gt;" class="s0" d="m142.6 90.1h24.8v6.2h-24.8z"/>
			<path id="&lt;Path&gt;" class="s0" d="m161.2 114.8h6.2v6.2h-6.2z"/>
		</g>
	</g>
</svg>