<svg version="1.2" xmlns="http://www.w3.org/2000/svg" viewBox="0 0 1432 1432" width="1432" height="1432">
	<title>Vector Smart Object2-ai</title>
	<style>
		.s0 { fill: #2f3175 } 
		.s1 { fill: none;stroke: #2f3175;stroke-width: 32 } 
	</style>
	<g id="Camada 1">
		<path id="&lt;Compound Path&gt;" fill-rule="evenodd" class="s0" d="m884 870.3v236.8c0 5.6-2.4 10.4-7.2 13.6-3.2 1.6-5.6 2.4-8.8 2.4-2.4 0-4.8-0.8-7.2-1.6l-144.8-68.8-145.6 68.8c-4.8 2.4-10.4 2.4-15.2-0.8-4-3.2-7.2-8-7.2-13.6v-236.8c-58.4-48-96-121.6-96-203.2 0-145.6 118.4-264 264-264 145.6 0 264 118.4 264 264 0 81.6-37.6 155.2-96 203.2zm-168 28.8c128 0 232-104 232-232 0-128-104-232-232-232-128 0-232 104-232 232 0 128 104 232 232 232zm-136 182.4l48-22.4v-143.2c-16.8-5.6-32.8-13.6-48-22.4zm143.2-60.8l48.8 23.2v-119.2c-18.4 4-36.8 6.4-56 6.4-19.2 0-37.6-2.4-56-6.4v119.2l48.8-23.2q7.2-3.6 14.4 0zm128.8-127.2c-15.2 8.8-31.2 16.8-48 22.4v143.2l48 22.4zm-294.4-255.2c-7.2-6.4-9.6-16-6.4-24.8 3.2-8.8 10.4-15.2 20-16.8l85.6-12.8 38.4-77.6c4-8 12.8-13.6 21.6-13.6 8.8 0 17.6 4.8 21.6 13.6l38.4 77.6 85.6 12.8c9.6 1.6 16.8 8 20 16.8 2.4 8.8 0 18.4-6.4 24.8l-62.4 60.8 14.4 84.8c1.6 9.6-2.4 18.4-9.6 24-4 3.2-9.6 4.8-14.4 4.8-4 0-7.2-1.6-11.2-3.2l-76.8-40-76.8 40c-8 4.8-18.4 4-25.6-1.6-7.2-5.6-11.2-14.4-9.6-24l14.4-84.8zm32.8-12.8l53.6 52.8c5.6 5.6 8.8 13.6 7.2 21.6l-12.8 74.4 66.4-35.2c3.2-2.4 7.2-3.2 11.2-3.2 4 0 8 1.6 11.2 3.2l66.4 35.2-12.8-74.4c-0.8-8 1.6-16 7.2-21.6l54.4-52-74.4-11.2c-8-1.6-15.2-6.4-18.4-13.6l-33.6-67.2-33.6 67.2c-3.2 7.2-10.4 12.8-18.4 13.6z"/>
		<path id="&lt;Path&gt;" class="s1" d="m1416 716c0 386.6-313.4 700-700 700-386.6 0-700-313.4-700-700 0-386.6 313.4-700 700-700 386.6 0 700 313.4 700 700z"/>
	</g>
</svg>