<svg version="1.2" xmlns="http://www.w3.org/2000/svg" viewBox="0 0 760 760" width="760" height="760">
	<title>Objeto Inteligente de Vetor-ai</title>
	<style>
		.s0 { fill: #fff } 
	</style>
	<g id="Camada 1">
		<g id="&lt;Group&gt;">
			<path id="&lt;Compound Path&gt;" fill-rule="evenodd" class="s0" d="m760 380c0 209.6-170.4 380-380 380-209.6 0-380-170.4-380-380 0-209.6 170.4-380 380-380 209.6 0 380 170.4 380 380zm-248-292.8c25.6 39.2 44.8 89.6 57.6 147.2h96c-32.8-64.8-87.2-116.8-153.6-147.2zm177.6 206.4h-109.6q4.8 42 4.8 86.4 0 44.4-4.8 86.4h108.8c8-27.2 12-56.8 12-86.4 0-29.6-4-59.2-11.2-86.4zm-618.4 172.8h109.6q-4.8-42-4.8-86.4 0-44.4 4.8-86.4h-109.6c-8 27.2-12 56.8-12 86.4 0 29.6 4 59.2 12 86.4zm169.6 0h110.4v-172.8h-110.4c-4 28.8-6.4 57.6-6.4 86.4 0 28.8 2.4 57.6 6.4 86.4zm168.8-231.2h98.4c-19.2-80.8-54.4-148-98.4-168.8zm-157.6 0h98.4v-168.8c-44 20.8-79.2 88-98.4 168.8zm98.4 290.4h-98.4c19.2 80.8 54.4 148 98.4 168.8zm157.6-0.8h-98.4v168.8c44-20.8 79.2-88 98.4-168.8zm12-58.4c4-28.8 6.4-57.6 6.4-86.4 0-28.8-2.4-57.6-6.4-86.4h-110.4v172.8zm-425.6-231.2h96c12.8-57.6 32.8-108 57.6-147.2-66.4 29.6-120.8 81.6-153.6 147.2zm153.6 437.6c-25.6-39.2-44.8-89.6-57.6-147.2h-96c32.8 64.8 87.2 116.8 153.6 147.2zm417.6-148h-96c-12.8 57.6-32.8 108-57.6 147.2 66.4-29.6 120.8-81.6 153.6-147.2z"/>
		</g>
	</g>
</svg>